<svg width="50" height="50" viewBox="0 0 50 50" fill="none" xmlns="http://www.w3.org/2000/svg">
<path d="M35.9375 6.25V9.04077V6.25ZM35.9375 9.04077C37.3242 9.04077 38.5796 9.60279 39.4885 10.5115L35.9375 9.04077ZM35.9375 9.04077C34.5508 9.04077 33.2954 9.60279 32.3865 10.5115L35.9375 9.04077ZM35.9375 19.0854V21.875V19.0854ZM35.9375 19.0854C37.3246 19.0854 38.5802 18.5231 39.4892 17.6141L35.9375 19.0854ZM35.9375 19.0854C34.5504 19.0854 33.2948 18.5231 32.3858 17.6141L35.9375 19.0854ZM43.75 14.0625L40.9598 14.0631L43.75 14.0625ZM40.9598 14.0631C40.9598 15.4498 40.3977 16.7053 39.4892 17.6141L40.9598 14.0631ZM40.9598 14.0631C40.9598 12.6761 40.3975 11.4204 39.4885 10.5115L40.9598 14.0631ZM30.9152 14.0631L28.125 14.0625L30.9152 14.0631ZM30.9152 14.0631C30.9152 12.6761 31.4775 11.4204 32.3865 10.5115L30.9152 14.0631ZM30.9152 14.0631C30.9152 15.4498 31.4773 16.7053 32.3858 17.6141L30.9152 14.0631ZM41.4619 8.53823L39.4885 10.5115L41.4619 8.53823ZM30.4133 19.5868L32.3858 17.6141L30.4133 19.5868ZM41.4619 19.5868L39.4892 17.6141L41.4619 19.5868ZM30.4133 8.53823L32.3865 10.5115L30.4133 8.53823Z" fill="#E04F16"/>
<path d="M35.9375 6.25V9.04077M35.9375 9.04077C37.3242 9.04077 38.5796 9.60279 39.4885 10.5115M35.9375 9.04077C34.5508 9.04077 33.2954 9.60279 32.3865 10.5115M39.4885 10.5115C40.3975 11.4204 40.9598 12.6761 40.9598 14.0631M39.4885 10.5115L41.4619 8.53823M32.3865 10.5115C31.4775 11.4204 30.9152 12.6761 30.9152 14.0631M32.3865 10.5115L30.4133 8.53823M35.9375 19.0854V21.875M35.9375 19.0854C37.3246 19.0854 38.5802 18.5231 39.4892 17.6141M35.9375 19.0854C34.5504 19.0854 33.2948 18.5231 32.3858 17.6141M39.4892 17.6141C40.3977 16.7053 40.9598 15.4498 40.9598 14.0631M39.4892 17.6141L41.4619 19.5868M32.3858 17.6141C31.4773 16.7053 30.9152 15.4498 30.9152 14.0631M32.3858 17.6141L30.4133 19.5868M43.75 14.0625L40.9598 14.0631M30.9152 14.0631L28.125 14.0625" stroke="#E04F16" stroke-width="3" stroke-linecap="round" stroke-linejoin="round"/>
<path d="M28.5215 40.5348C28.125 39.5777 28.125 38.3644 28.125 35.9375C28.125 33.5106 28.125 32.2973 28.5215 31.3402C29.05 30.064 30.064 29.05 31.3402 28.5215C32.2973 28.125 33.5106 28.125 35.9375 28.125C38.3644 28.125 39.5777 28.125 40.5348 28.5215C41.811 29.05 42.825 30.064 43.3535 31.3402C43.75 32.2973 43.75 33.5106 43.75 35.9375C43.75 38.3644 43.75 39.5777 43.3535 40.5348C42.825 41.811 41.811 42.825 40.5348 43.3535C39.5777 43.75 38.3644 43.75 35.9375 43.75C33.5106 43.75 32.2973 43.75 31.3402 43.3535C30.064 42.825 29.05 41.811 28.5215 40.5348Z" fill="#E04F16"/>
<path d="M6.64646 40.5348C6.25 39.5777 6.25 38.3644 6.25 35.9375C6.25 33.5106 6.25 32.2973 6.64646 31.3402C7.17508 30.064 8.189 29.05 9.46519 28.5215C10.4223 28.125 11.6357 28.125 14.0625 28.125C16.4893 28.125 17.7027 28.125 18.6598 28.5215C19.936 29.05 20.95 30.064 21.4785 31.3402C21.875 32.2973 21.875 33.5106 21.875 35.9375C21.875 38.3644 21.875 39.5777 21.4785 40.5348C20.95 41.811 19.936 42.825 18.6598 43.3535C17.7027 43.75 16.4893 43.75 14.0625 43.75C11.6357 43.75 10.4223 43.75 9.46519 43.3535C8.189 42.825 7.17508 41.811 6.64646 40.5348Z" fill="#E04F16"/>
<path d="M6.64646 18.6598C6.25 17.7027 6.25 16.4893 6.25 14.0625C6.25 11.6357 6.25 10.4223 6.64646 9.46519C7.17508 8.189 8.189 7.17508 9.46519 6.64646C10.4223 6.25 11.6357 6.25 14.0625 6.25C16.4893 6.25 17.7027 6.25 18.6598 6.64646C19.936 7.17508 20.95 8.189 21.4785 9.46519C21.875 10.4223 21.875 11.6357 21.875 14.0625C21.875 16.4893 21.875 17.7027 21.4785 18.6598C20.95 19.936 19.936 20.95 18.6598 21.4785C17.7027 21.875 16.4893 21.875 14.0625 21.875C11.6357 21.875 10.4223 21.875 9.46519 21.4785C8.189 20.95 7.17508 19.936 6.64646 18.6598Z" fill="#E04F16"/>
</svg>
