<svg width="227" height="38" viewBox="0 0 227 38" fill="none" xmlns="http://www.w3.org/2000/svg">
<path d="M130.318 3.12189C135.506 4.67183 140.052 -0.953705 146.559 0.507026C153.03 2.02947 153.538 5.20351 161.03 5.68244C168.541 6.19568 175.383 10.0709 178.909 9.7394C182.47 9.41883 181.774 13.2178 186.475 13.8766C191.253 14.6162 193.776 16.17 197.071 19.0265C197.937 19.7866 199.34 20.7949 200.971 21.9217C205.432 25.0175 211.908 28.5706 215.388 28.9943C217.702 29.2613 219.68 30.5266 221.442 31.9459C222.324 32.655 223.118 33.3877 223.852 34.0355C224.248 34.3709 224.597 34.6708 224.906 34.9207C225.089 35.0551 225.213 35.1604 225.363 35.2589C225.431 35.3059 225.469 35.3409 225.502 35.371C225.512 35.3848 225.505 35.3942 225.474 35.4033C225.448 35.4075 225.402 35.4109 225.323 35.4253C225.284 35.4327 225.236 35.4432 225.178 35.4609C225.11 35.4849 225.088 35.4819 224.908 35.5768C224.721 35.6776 224.479 35.9065 224.366 36.1926C224.247 36.4984 224.269 36.6858 224.286 36.8303C224.333 37.1121 224.431 37.2275 224.446 37.247C224.508 37.3214 224.522 37.3074 224.524 37.2907C224.524 37.251 224.483 37.173 224.44 37.0974C224.352 36.9443 224.243 36.781 224.141 36.6235C223.936 36.3094 223.748 36.0094 223.595 35.7344C223.466 35.5017 223.495 35.2221 223.648 35.0269C223.648 35.0267 223.648 35.0266 223.648 35.0265C223.805 34.7614 224.131 34.6119 224.418 34.7623C224.773 34.9502 225.162 35.1407 225.625 35.3995C225.737 35.4617 225.867 35.5404 225.992 35.6232C226.139 35.7465 226.257 35.7448 226.525 36.1793C226.566 36.2626 226.611 36.3679 226.636 36.5194C226.656 36.6681 226.678 36.8697 226.549 37.1666C226.425 37.446 226.179 37.6436 225.993 37.7288C225.833 37.8026 225.784 37.8113 225.696 37.8338C225.543 37.8694 225.409 37.8736 225.325 37.8763C225.262 37.8803 225.202 37.8816 225.143 37.8812C224.872 37.8705 224.763 37.872 224.565 37.8542C223.292 37.7647 221.977 37.6215 220.5 37.584C214.94 37.3445 215.512 35.0477 208.931 33.0023C204.507 31.6149 200.967 31.1834 197.095 29.524C195.391 28.8053 193.604 27.8607 191.519 26.4764C184.937 22.3046 181.553 27.1049 172.148 21.2155C162.32 15.5507 159.893 21.318 149.312 20.7186C138.682 20.1783 125.141 16.3932 118.5 16.6938C111.904 16.944 103.099 17.8576 93.6866 17.6665C84.2439 17.4558 72.8982 20.5906 62.4311 20.5359C51.9779 20.42 37.0274 21.1117 30.0831 21.2362C23.1407 21.3409 21.4115 21.4153 15.1074 23.5235C11.5367 24.7318 6.24974 25.5301 1.7091 25.0742C1.34463 25.0654 1.09119 25.0243 0.900637 24.964C0.702891 24.9056 0.620588 24.8142 0.362684 24.7675C0.0364332 24.6249 0.0988015 24.3748 0.0198136 24.17C-0.00298278 24.0633 -0.0227064 23.9577 0.0605439 23.8292C0.100929 23.7652 0.179387 23.6923 0.283966 23.6141C0.315417 23.5547 0.356142 23.4942 0.408916 23.4321C0.514559 23.3078 0.668043 23.1769 0.896036 23.0349C1.00632 22.9648 1.15533 22.8869 1.28675 22.8157C1.37842 22.7546 1.48104 22.6928 1.59608 22.6303C4.59282 21.0929 7.34902 20.9791 8.75422 19.2572C11.4191 15.8559 12.6735 14.5038 17.2161 15.1642C21.839 15.8176 22.9507 11.9283 25.6381 11.8264C28.1087 11.7963 28.4881 13.7781 40.7806 10.0112C53.1627 6.29982 60.0858 5.04005 64.9064 4.04073C69.6507 3.04851 80.0294 3.78912 87.8498 2.55858C95.7186 1.21893 111.941 1.23751 118.513 0.254541C125.096 -0.787577 125.1 1.60978 130.318 3.12189Z" fill="#155EEF"/>
</svg>
