<svg width="60" height="60" viewBox="0 0 60 60" fill="none" xmlns="http://www.w3.org/2000/svg">
<path d="M30 43.3751C32.2506 43.3751 34.075 41.5507 34.075 39.3001C34.075 37.0495 32.2506 35.2251 30 35.2251C27.7495 35.2251 25.925 37.0495 25.925 39.3001C25.925 41.5507 27.7495 43.3751 30 43.3751Z" fill="#E04F16"/>
<path d="M45.7 23.825V20.7C45.7 13.95 44.075 5 30 5C15.925 5 14.3 13.95 14.3 20.7V23.825C7.3 24.7 5 28.25 5 36.975V41.625C5 51.875 8.125 55 18.375 55H41.625C51.875 55 55 51.875 55 41.625V36.975C55 28.25 52.7 24.7 45.7 23.825ZM30 46.85C25.825 46.85 22.45 43.45 22.45 39.3C22.45 35.125 25.85 31.75 30 31.75C34.15 31.75 37.55 35.15 37.55 39.3C37.55 43.475 34.175 46.85 30 46.85ZM18.375 23.6C18.175 23.6 18 23.6 17.8 23.6V20.7C17.8 13.375 19.875 8.5 30 8.5C40.125 8.5 42.2 13.375 42.2 20.7V23.625C42 23.625 41.825 23.625 41.625 23.625H18.375V23.6Z" fill="#E04F16"/>
</svg>
