<svg width="23" height="22" viewBox="0 0 23 22" fill="none" xmlns="http://www.w3.org/2000/svg">
<g clip-path="url(#clip0_3010_12223)">
<path d="M14.7934 0.0224188L14.7779 7.31942H7.40945V-0.000366211H-0.00244141V7.31942V15.8266C1.13554 14.2692 2.67646 12.9969 4.36301 12.0623C8.94678 9.5429 13.5774 10.6462 14.7779 10.972V21.9861H22.1757V0.0224179L14.7934 0.0224188Z" fill="#155EEF"/>
<path d="M-0.00244141 21.9996H7.32483C7.33442 19.8066 7.78518 18.1534 8.14286 17.1438C8.62126 15.7938 9.12675 15.0547 9.32759 14.7724C9.80396 14.1099 10.3741 13.5203 11.0201 13.0221C10.2252 13.0221 5.85802 13.104 2.67053 16.5792C0.78625 18.6339 0.201219 20.9071 -0.00244141 21.9996Z" fill="#155EEF"/>
</g>
<defs>
<clipPath id="clip0_3010_12223">
<rect width="22.1781" height="22" fill="white"/>
</clipPath>
</defs>
</svg>
