<svg width="24" height="24" viewBox="0 0 24 24" fill="none" xmlns="http://www.w3.org/2000/svg">
<path d="M19.4626 3.99354C16.7809 2.34862 14.4404 3.0115 13.0344 4.0674C12.4578 4.50035 12.1696 4.71682 12 4.71682C11.8304 4.71682 11.5422 4.50035 10.9656 4.0674C9.55962 3.0115 7.21909 2.34862 4.53744 3.99354C1.01807 6.15232 0.221718 13.2742 8.33953 19.2827C9.88572 20.4272 10.6588 20.9994 12 20.9994C13.3412 20.9994 14.1143 20.4272 15.6605 19.2827C23.7783 13.2742 22.9819 6.15232 19.4626 3.99354Z" fill="url(#paint0_linear_3599_723)"/>
<path d="M12 9V15M9 12H15" stroke="#D1E0FF" stroke-width="1.5" stroke-linecap="round"/>
<defs>
<linearGradient id="paint0_linear_3599_723" x1="2" y1="11.9994" x2="22" y2="11.9994" gradientUnits="userSpaceOnUse">
<stop stop-color="#063595"/>
<stop offset="1" stop-color="#254991"/>
</linearGradient>
</defs>
</svg>
