<svg width="50" height="50" viewBox="0 0 50 50" fill="none" xmlns="http://www.w3.org/2000/svg">
<path d="M25 45.8333L20.8333 33.3333H4.16667L8.33334 45.8333H25ZM25 45.8333H33.3333H25Z" fill="#E04F16"/>
<path d="M25 45.8333L20.8333 33.3333H4.16667L8.33334 45.8333H25ZM25 45.8333H33.3333" stroke="#E04F16" stroke-width="1.5" stroke-linecap="round" stroke-linejoin="round"/>
<path d="M25 27.0833V26.0416C25 22.1133 25 20.149 23.7796 18.9286C22.5592 17.7083 20.595 17.7083 16.6667 17.7083C12.7383 17.7083 10.7741 17.7083 9.55372 18.9286C8.33333 20.149 8.33333 22.1133 8.33333 26.0416V27.0833" stroke="#E04F16" stroke-width="3" stroke-linecap="round" stroke-linejoin="round"/>
<path d="M39.5833 27.0834C39.5833 29.3847 37.7179 31.2501 35.4167 31.2501C33.1154 31.2501 31.25 29.3847 31.25 27.0834C31.25 24.7822 33.1154 22.9167 35.4167 22.9167C37.7179 22.9167 39.5833 24.7822 39.5833 27.0834Z" stroke="#E04F16" stroke-width="3"/>
<path d="M20.8333 8.33341C20.8333 10.6346 18.9679 12.5001 16.6667 12.5001C14.3655 12.5001 12.5 10.6346 12.5 8.33341C12.5 6.03223 14.3655 4.16675 16.6667 4.16675C18.9679 4.16675 20.8333 6.03223 20.8333 8.33341Z" stroke="#E04F16" stroke-width="3"/>
<path d="M29.1667 36.4583H41.6667C43.9679 36.4583 45.8333 38.3237 45.8333 40.6249V41.6666C45.8333 43.9678 43.9679 45.8333 41.6667 45.8333H39.5833" stroke="#E04F16" stroke-width="3" stroke-linecap="round"/>
</svg>
