<svg width="50" height="50" viewBox="0 0 50 50" fill="none" xmlns="http://www.w3.org/2000/svg">
<path d="M23.9583 6.25757C22.7881 6.27501 21.6227 6.3218 20.4779 6.3979C11.7633 6.97719 4.8217 14.0173 4.25052 22.8556C4.13874 24.5852 4.13874 26.3762 4.25052 28.1058C4.45856 31.3247 5.88216 34.3052 7.55816 36.822C8.53129 38.5839 7.88906 40.7829 6.87545 42.7037C6.14462 44.0885 5.7792 44.781 6.0726 45.2812C6.36601 45.7816 7.02139 45.7974 8.33216 45.8293C10.9243 45.8924 12.6723 45.1577 14.0598 44.1345C14.8467 43.5541 15.2402 43.2641 15.5113 43.2308C15.7825 43.1972 16.3162 43.4172 17.3834 43.8566C18.3425 44.2516 19.4562 44.4956 20.4779 44.5635C23.445 44.7606 26.549 44.761 29.5221 44.5635C38.2367 43.9841 45.1784 36.9441 45.7496 28.1058C45.8156 27.0835 45.8425 26.0397 45.8306 24.9999" stroke="#E04F16" stroke-width="3" stroke-linecap="round" stroke-linejoin="round"/>
<path d="M17.7083 31.2499H32.2916M17.7083 20.8333H22.9166" stroke="#E04F16" stroke-width="3" stroke-linecap="round" stroke-linejoin="round"/>
<path d="M45.8333 11.4584V6.25008C41.6667 6.25008 38.5417 4.16675 38.5417 4.16675C38.5417 4.16675 35.4167 6.25008 31.25 6.25008V11.4584C31.25 18.7501 38.5417 20.8334 38.5417 20.8334C38.5417 20.8334 45.8333 18.7501 45.8333 11.4584Z" fill="#E04F16"/>
</svg>
