<svg width="100" height="24" viewBox="0 0 100 24" fill="none" xmlns="http://www.w3.org/2000/svg">
<g clip-path="url(#clip0_3010_11850)">
<path d="M14.7939 1.02242L14.7784 8.31942H7.40994V0.999634H-0.00195312V8.31942V16.8266C1.13603 15.2692 2.67694 13.9969 4.36349 13.0623C8.94727 10.5429 13.5779 11.6462 14.7784 11.972V22.9861H22.1762V1.02242L14.7939 1.02242Z" fill="#155EEF"/>
<path d="M-0.00195312 22.9996H7.32532C7.33491 20.8066 7.78567 19.1534 8.14335 18.1438C8.62175 16.7938 9.12724 16.0547 9.32808 15.7724C9.80445 15.1099 10.3746 14.5203 11.0205 14.0221C10.2256 14.0221 5.85851 14.104 2.67102 17.5792C0.786739 19.6339 0.201708 21.9071 -0.00195312 22.9996Z" fill="#155EEF"/>
</g>
<path d="M40.6096 11.7273C40.6096 13.2945 40.316 14.6368 39.7289 15.7543C39.1465 16.867 38.351 17.7192 37.3425 18.3111C36.3387 18.9029 35.2 19.1989 33.9263 19.1989C32.6526 19.1989 31.5115 18.9029 30.503 18.3111C29.4992 17.7145 28.7038 16.8598 28.1167 15.7472C27.5343 14.6297 27.2431 13.2898 27.2431 11.7273C27.2431 10.16 27.5343 8.82008 28.1167 7.70739C28.7038 6.58996 29.4992 5.73532 30.503 5.14347C31.5115 4.55161 32.6526 4.25568 33.9263 4.25568C35.2 4.25568 36.3387 4.55161 37.3425 5.14347C38.351 5.73532 39.1465 6.58996 39.7289 7.70739C40.316 8.82008 40.6096 10.16 40.6096 11.7273ZM37.9604 11.7273C37.9604 10.6241 37.7876 9.69366 37.4419 8.93608C37.101 8.17377 36.6275 7.59848 36.0215 7.21023C35.4154 6.81723 34.717 6.62074 33.9263 6.62074C33.1356 6.62074 32.4372 6.81723 31.8311 7.21023C31.2251 7.59848 30.7492 8.17377 30.4036 8.93608C30.0627 9.69366 29.8922 10.6241 29.8922 11.7273C29.8922 12.8305 30.0627 13.7633 30.4036 14.5256C30.7492 15.2831 31.2251 15.8584 31.8311 16.2514C32.4372 16.6397 33.1356 16.8338 33.9263 16.8338C34.717 16.8338 35.4154 16.6397 36.0215 16.2514C36.6275 15.8584 37.101 15.2831 37.4419 14.5256C37.7876 13.7633 37.9604 12.8305 37.9604 11.7273ZM42.0834 19V4.45455H44.7184V10.6122H51.4584V4.45455H54.1005V19H51.4584V12.821H44.7184V19H42.0834ZM60.6649 19.2131C59.5712 19.2131 58.6266 18.9858 57.8311 18.5312C57.0404 18.072 56.432 17.4233 56.0058 16.5852C55.5797 15.7424 55.3666 14.7505 55.3666 13.6094C55.3666 12.4872 55.5797 11.5024 56.0058 10.6548C56.4367 9.80256 57.038 9.13968 57.8098 8.66619C58.5816 8.18797 59.4883 7.94886 60.53 7.94886C61.2023 7.94886 61.8368 8.05777 62.4334 8.27557C63.0347 8.48864 63.565 8.82008 64.0243 9.26989C64.4883 9.7197 64.8529 10.2926 65.118 10.9886C65.3832 11.6799 65.5158 12.5038 65.5158 13.4602V14.2486H56.574V12.5156H63.0513C63.0465 12.0232 62.94 11.5852 62.7317 11.2017C62.5233 10.8134 62.2322 10.508 61.8581 10.2855C61.4888 10.063 61.0579 9.9517 60.5655 9.9517C60.0399 9.9517 59.5783 10.0795 59.1805 10.3352C58.7828 10.5862 58.4727 10.9176 58.2501 11.3295C58.0323 11.7367 57.9211 12.1842 57.9163 12.6719V14.1847C57.9163 14.8191 58.0323 15.3636 58.2643 15.8182C58.4964 16.268 58.8207 16.6136 59.2374 16.8551C59.654 17.0919 60.1417 17.2102 60.7004 17.2102C61.0745 17.2102 61.413 17.1581 61.7161 17.054C62.0191 16.9451 62.2819 16.7865 62.5044 16.5781C62.7269 16.3698 62.895 16.1117 63.0087 15.804L65.4092 16.0739C65.2577 16.7083 64.9689 17.2623 64.5428 17.7358C64.1214 18.2045 63.5816 18.5691 62.9234 18.8295C62.2653 19.0852 61.5125 19.2131 60.6649 19.2131ZM69.8128 19.2202C69.1215 19.2202 68.4989 19.0971 67.9449 18.8509C67.3957 18.5999 66.9601 18.2306 66.6381 17.7429C66.3209 17.2552 66.1622 16.6539 66.1622 15.9389C66.1622 15.3234 66.2759 14.8144 66.5031 14.4119C66.7304 14.0095 67.0406 13.6875 67.4335 13.446C67.8265 13.2045 68.2692 13.0223 68.7617 12.8991C69.2588 12.7713 69.7726 12.679 70.3029 12.6222C70.9421 12.5559 71.4605 12.4967 71.8583 12.4446C72.256 12.3878 72.5448 12.3026 72.7247 12.1889C72.9094 12.0705 73.0017 11.8883 73.0017 11.642V11.5994C73.0017 11.0644 72.8431 10.6501 72.5259 10.3565C72.2086 10.063 71.7517 9.91619 71.1551 9.91619C70.5254 9.91619 70.0259 10.0535 69.6566 10.3281C69.292 10.6027 69.0458 10.9271 68.9179 11.3011L66.5173 10.9602C66.7067 10.2973 67.0192 9.74337 67.4549 9.2983C67.8905 8.84848 68.4231 8.51231 69.0529 8.28977C69.6826 8.0625 70.3786 7.94886 71.1409 7.94886C71.6665 7.94886 72.1897 8.01042 72.7105 8.13352C73.2314 8.25663 73.7072 8.46023 74.1381 8.74432C74.569 9.02367 74.9146 9.40483 75.175 9.88778C75.4402 10.3707 75.5727 10.9744 75.5727 11.6989V19H73.1012V17.5014H73.0159C72.8597 17.8045 72.6395 18.0885 72.3554 18.3537C72.0761 18.6141 71.7233 18.8248 71.2972 18.9858C70.8758 19.142 70.381 19.2202 69.8128 19.2202ZM70.4804 17.331C70.9965 17.331 71.444 17.2292 71.8227 17.0256C72.2015 16.8172 72.4927 16.5426 72.6963 16.2017C72.9047 15.8608 73.0088 15.4891 73.0088 15.0866V13.8011C72.9283 13.8674 72.791 13.929 72.5969 13.9858C72.4075 14.0426 72.1944 14.0923 71.9577 14.1349C71.7209 14.1776 71.4866 14.2154 71.2546 14.2486C71.0226 14.2817 70.8213 14.3101 70.6509 14.3338C70.2674 14.3859 69.9241 14.4711 69.621 14.5895C69.318 14.7079 69.0789 14.8736 68.9037 15.0866C68.7285 15.295 68.6409 15.5649 68.6409 15.8963C68.6409 16.3698 68.8138 16.7273 69.1594 16.9688C69.505 17.2102 69.9454 17.331 70.4804 17.331ZM79.7118 4.45455V19H77.1407V4.45455H79.7118ZM86.7858 8.09091V10.0795H80.5145V8.09091H86.7858ZM82.0628 5.47727H84.6338V15.7188C84.6338 16.0644 84.6859 16.3295 84.79 16.5142C84.8989 16.6941 85.041 16.8172 85.2162 16.8835C85.3914 16.9498 85.5855 16.983 85.7986 16.983C85.9595 16.983 86.1063 16.9711 86.2389 16.9474C86.3762 16.9238 86.4804 16.9025 86.5514 16.8835L86.9846 18.8935C86.8473 18.9408 86.6508 18.9929 86.3952 19.0497C86.1442 19.1065 85.8364 19.1397 85.4719 19.1491C84.8279 19.1681 84.2479 19.071 83.7318 18.858C83.2157 18.6402 82.8061 18.304 82.5031 17.8494C82.2048 17.3949 82.058 16.8267 82.0628 16.1449V5.47727ZM90.7242 12.608V19H88.1531V4.45455H90.6673V9.9446H90.7952C91.0509 9.32907 91.4462 8.84375 91.9813 8.48864C92.521 8.12879 93.2076 7.94886 94.0409 7.94886C94.7985 7.94886 95.459 8.10748 96.0224 8.42472C96.5859 8.74195 97.0215 9.20597 97.3293 9.81676C97.6418 10.4276 97.798 11.1733 97.798 12.054V19H95.227V12.4517C95.227 11.7178 95.0376 11.1473 94.6588 10.7401C94.2848 10.3281 93.7592 10.1222 93.0821 10.1222C92.6276 10.1222 92.2204 10.2216 91.8605 10.4205C91.5054 10.6146 91.226 10.8963 91.0224 11.2656C90.8236 11.6349 90.7242 12.0824 90.7242 12.608Z" fill="#1A1A1A"/>
<defs>
<clipPath id="clip0_3010_11850">
<rect width="22.1781" height="22" fill="white" transform="translate(0 1)"/>
</clipPath>
</defs>
</svg>
