<svg width="60" height="60" viewBox="0 0 60 60" fill="none" xmlns="http://www.w3.org/2000/svg">
<path d="M46.2499 10.275L33.7749 5.60005C31.6999 4.82505 28.2999 4.82505 26.2249 5.60005L13.7499 10.275C10.8749 11.35 8.5249 14.75 8.5249 17.8V36.3751C8.5249 39.325 10.4749 43.2 12.8499 44.975L23.5999 53.0001C27.1249 55.6501 32.9249 55.6501 36.4499 53.0001L47.1999 44.975C49.5749 43.2 51.5249 39.325 51.5249 36.3751V17.8C51.4749 14.75 49.1249 11.35 46.2499 10.275ZM29.8249 17.575C32.7749 17.575 35.1749 19.975 35.1749 22.925C35.1749 25.825 32.8999 28.1501 30.0249 28.2501H29.9749H29.9249C29.8749 28.2501 29.8249 28.2501 29.7749 28.2501C26.7749 28.1501 24.5249 25.825 24.5249 22.925C24.4999 19.975 26.8999 17.575 29.8249 17.575ZM35.4749 40.9001C33.9499 41.9001 31.9749 42.425 29.9999 42.425C28.0249 42.425 26.0249 41.9251 24.5249 40.9001C23.0999 39.9501 22.3249 38.6501 22.2999 37.2251C22.2999 35.8251 23.0999 34.475 24.5249 33.525C27.5499 31.525 32.4749 31.525 35.4999 33.525C36.9249 34.475 37.7249 35.775 37.7249 37.2C37.6999 38.6 36.8999 39.9501 35.4749 40.9001Z" fill="#E04F16"/>
</svg>
