<svg width="60" height="60" viewBox="0 0 60 60" fill="none" xmlns="http://www.w3.org/2000/svg">
<path d="M53.9 26.8499L50.5 22.8999C49.85 22.1499 49.325 20.7499 49.325 19.7499V15.4999C49.325 12.8499 47.1499 10.6749 44.4999 10.6749H40.25C39.275 10.6749 37.85 10.1499 37.1 9.4999L33.15 6.0999C31.425 4.6249 28.6 4.6249 26.85 6.0999L22.925 9.5249C22.175 10.1499 20.75 10.6749 19.775 10.6749H15.45C12.8 10.6749 10.625 12.8499 10.625 15.4999V19.7749C10.625 20.7499 10.1 22.1499 9.47495 22.8999L6.09995 26.8749C4.64995 28.5999 4.64995 31.3999 6.09995 33.1249L9.47495 37.0999C10.1 37.8499 10.625 39.2499 10.625 40.2249V44.4999C10.625 47.1499 12.8 49.3249 15.45 49.3249H19.775C20.75 49.3249 22.175 49.8499 22.925 50.4999L26.875 53.8999C28.6 55.3749 31.425 55.3749 33.175 53.8999L37.125 50.4999C37.875 49.8499 39.275 49.3249 40.275 49.3249H44.5249C47.1749 49.3249 49.35 47.1499 49.35 44.4999V40.2499C49.35 39.2749 49.875 37.8499 50.525 37.0999L53.925 33.1499C55.375 31.4249 55.375 28.5749 53.9 26.8499ZM40.4 25.2749L28.325 37.3499C27.975 37.6999 27.5 37.8999 27 37.8999C26.5 37.8999 26.025 37.6999 25.675 37.3499L19.625 31.2999C18.9 30.5749 18.9 29.3749 19.625 28.6499C20.35 27.9249 21.55 27.9249 22.275 28.6499L27 33.3749L37.75 22.6249C38.475 21.8999 39.675 21.8999 40.4 22.6249C41.125 23.3499 41.125 24.5499 40.4 25.2749Z" fill="#E04F16"/>
</svg>
