<svg width="24" height="24" viewBox="0 0 24 24" fill="none" xmlns="http://www.w3.org/2000/svg">
<path d="M16.0113 0.0248564L15.9945 7.9852H8.02076V0H0V17.2658C1.23146 15.5668 2.89896 14.1788 4.72405 13.1592C9.68437 10.4108 14.6954 11.6144 15.9945 11.9698V23.9852H24V0.0248553L16.0113 0.0248564Z" fill="#155EEF"/>
<path d="M0 24H7.92918C7.93956 21.6076 8.42735 19.8041 8.81441 18.7028C9.33211 17.2301 9.87912 16.4238 10.0965 16.1158C10.612 15.3931 11.2289 14.7499 11.928 14.2064C11.0678 14.2064 6.34188 14.2957 2.89255 18.0869C0.85348 20.3283 0.220391 22.8081 0 24Z" fill="#155EEF"/>
</svg>
